<svg width="126" height="145" viewBox="0 0 126 145" fill="none" xmlns="http://www.w3.org/2000/svg">
<g clip-path="url(#clip0_586_74)">
<path d="M125.54 144.1H29.48C29.48 91.05 72.49 48.04 125.54 48.04V144.1Z" fill="#FFCF00"/>
<path d="M48.13 96.06C21.6 96.06 0.0999756 74.56 0.0999756 48.03C0.0999756 21.5 21.6 0 48.13 0C74.66 0 96.16 21.5 96.16 48.03C96.16 74.56 74.66 96.06 48.13 96.06Z" fill="#173DFF"/>
<path d="M81.76 125.72C84.77 125.72 87.25 125.47 89.21 124.97C91.17 124.47 92.74 123.79 93.93 122.92C95.11 122.05 95.93 121.03 96.39 119.84C96.85 118.66 97.07 117.33 97.07 115.87C97.07 112.77 95.61 110.19 92.69 108.14C89.77 106.09 84.76 103.88 77.64 101.51C74.54 100.42 71.44 99.16 68.34 97.75C65.24 96.34 62.46 94.56 60 92.42C57.54 90.28 55.53 87.68 53.98 84.62C52.43 81.57 51.65 77.85 51.65 73.47C51.65 69.09 52.47 65.15 54.11 61.64C55.75 58.13 58.08 55.14 61.09 52.68C64.1 50.22 67.75 48.33 72.03 47C76.32 45.68 81.15 45.02 86.53 45.02C92.91 45.02 98.43 45.7 103.08 47.07C107.73 48.44 111.56 49.94 114.57 51.58L108.41 68.4C105.76 67.03 102.82 65.82 99.59 64.78C96.35 63.73 92.45 63.21 87.89 63.21C82.78 63.21 79.11 63.92 76.88 65.33C74.64 66.75 73.53 68.91 73.53 71.83C73.53 73.56 73.94 75.02 74.76 76.21C75.58 77.4 76.74 78.47 78.25 79.42C79.75 80.38 81.49 81.25 83.45 82.02C85.41 82.8 87.57 83.59 89.95 84.41C94.87 86.24 99.16 88.04 102.81 89.81C106.46 91.59 109.49 93.66 111.91 96.03C114.33 98.4 116.13 101.18 117.31 104.37C118.49 107.56 119.09 111.44 119.09 116C119.09 124.85 115.99 131.71 109.79 136.59C103.59 141.47 94.24 143.91 81.75 143.91C77.55 143.91 73.77 143.66 70.4 143.16C67.03 142.66 64.04 142.04 61.44 141.31C58.84 140.58 56.61 139.81 54.74 138.98C52.87 138.16 51.3 137.39 50.02 136.66L56.04 119.7C58.87 121.25 62.35 122.64 66.5 123.87C70.65 125.11 75.74 125.72 81.76 125.72Z" fill="white"/>
<path d="M6.56 130.66L1.45 125.2C-0.490005 123.27 -0.490005 121.49 1.45 119.86L24.08 100.71C24.47 100.4 24.93 100.11 25.47 99.84C26.01 99.57 26.42 99.32 26.69 99.09C26.96 98.86 27.1 98.55 27.1 98.16V97.35C27.1 96.96 26.96 96.65 26.69 96.42C26.42 96.19 25.99 95.94 25.41 95.67C24.83 95.4 24.38 95.11 24.08 94.8L1.45 75.53C-0.490005 73.91 -0.490005 72.13 1.45 70.19L6.56 64.85C8.18 63.23 9.95999 63.23 11.9 64.85L39.99 88.64C41.46 89.96 42.19 91.47 42.19 93.17V102.34C42.19 104.04 41.45 105.55 39.99 106.87L11.9 130.66C9.95999 132.29 8.18 132.29 6.56 130.66Z" fill="#238536"/>
</g>
<defs>
<clipPath id="clip0_586_74">
<rect width="125.54" height="144.1" fill="white"/>
</clipPath>
</defs>
</svg>
